<?xml version="1.0" ?><!DOCTYPE svg  PUBLIC '-//W3C//DTD SVG 1.1//EN'  'http://www.w3.org/Graphics/SVG/1.1/DTD/svg11.dtd'><svg height="512px" style="enable-background:new 0 0 512 512;" version="1.1" viewBox="0 0 512 512" width="512px" xml:space="preserve" xmlns="http://www.w3.org/2000/svg" xmlns:xlink="http://www.w3.org/1999/xlink"><g id="_x32_63_x2C__Connect_x2C__global_x2C__link_x2C__user"><g><path d="M149.195,315.511h-77.44c0.701,32.672,9.95,63.277,25.592,89.668h65.216C154.171,378.017,149.552,347.398,149.195,315.511    z"/><path d="M186.798,442.727c17.726,32.452,40.748,51.064,65.203,52.899v-82.447h-78.343    C177.436,423.713,181.822,433.616,186.798,442.727z"/><path d="M179.777,446.561c-5.595-10.244-10.476-21.439-14.601-33.382h-62.804c26.477,39.869,68.042,68.889,116.482,78.842    C204.27,482.393,190.959,467.033,179.777,446.561z"/><path d="M255.999,79.623c-58.591,0-106.258,47.667-106.258,106.258c0,22.262,7.047,44.027,19.964,62.017    c5.831-9.629,13.59-18.145,22.978-24.987c0.018-0.014,0.034-0.028,0.053-0.041c-4.583-7.862-7.616-16.483-8.999-25.473    c-0.016-0.101-0.029-0.201-0.045-0.301c-0.171-1.144-0.322-2.291-0.439-3.445c-0.001-0.015-0.003-0.03-0.005-0.045    c-0.112-1.115-0.194-2.236-0.256-3.36c-0.014-0.243-0.024-0.486-0.036-0.73c-0.05-1.119-0.085-2.241-0.085-3.368    c0-40.322,32.806-73.127,73.129-73.127c40.336,0,73.15,32.805,73.15,73.127c0,1.122-0.035,2.239-0.085,3.354    c-0.012,0.253-0.023,0.506-0.037,0.759c-0.063,1.105-0.142,2.209-0.253,3.307c-0.007,0.07-0.017,0.141-0.024,0.211    c-0.11,1.068-0.249,2.132-0.406,3.19c-0.025,0.174-0.05,0.347-0.077,0.52c-0.362,2.326-0.836,4.628-1.419,6.899    c-0.004,0.013-0.007,0.025-0.009,0.037c-1.658,6.447-4.188,12.647-7.56,18.442c0.033,0.024,0.064,0.051,0.098,0.075    c9.362,6.838,17.104,15.338,22.925,24.946c12.925-17.981,19.977-39.743,19.977-62.007    C362.278,127.29,314.602,79.623,255.999,79.623z"/><path d="M174.514,258.415c-0.022,0.044-0.051,0.084-0.074,0.127c-5.049,10.272-7.783,21.687-7.783,33.505v6.106h178.707v-6.106    c0-11.723-2.692-23.049-7.668-33.259c-0.077-0.125-0.154-0.25-0.221-0.384c-5.306-10.744-13.117-20.124-22.758-27.381    c-0.002-0.001-0.004-0.003-0.006-0.004c-0.196-0.148-0.4-0.289-0.6-0.437c-6.334,8.288-14.271,14.992-23.207,19.848    c-0.074,0.041-0.149,0.078-0.224,0.119c-0.984,0.531-1.978,1.046-2.986,1.531c-0.025,0.013-0.052,0.024-0.078,0.037    c-2.702,1.295-5.486,2.417-8.337,3.373c-0.643,0.217-1.284,0.437-1.935,0.635c-0.544,0.166-1.093,0.315-1.642,0.469    c-0.739,0.206-1.479,0.407-2.227,0.592c-0.517,0.126-1.035,0.244-1.555,0.359c-0.794,0.177-1.592,0.341-2.395,0.492    c-0.499,0.093-0.997,0.185-1.498,0.268c-0.843,0.141-1.692,0.26-2.544,0.371c-0.474,0.062-0.945,0.129-1.42,0.181    c-0.926,0.103-1.859,0.177-2.795,0.244c-0.408,0.029-0.813,0.071-1.224,0.093c-1.341,0.074-2.689,0.118-4.048,0.118    c-1.357,0-2.705-0.044-4.045-0.117c-0.418-0.023-0.834-0.065-1.251-0.096c-0.923-0.066-1.844-0.14-2.757-0.24    c-0.493-0.055-0.982-0.124-1.474-0.188c-0.827-0.108-1.651-0.225-2.471-0.36c-0.53-0.087-1.058-0.184-1.586-0.283    c-0.76-0.145-1.515-0.299-2.267-0.466c-0.566-0.125-1.132-0.253-1.693-0.392c-0.676-0.168-1.346-0.35-2.015-0.536    c-0.621-0.172-1.244-0.341-1.859-0.529c-0.515-0.158-1.02-0.333-1.528-0.502c-13.833-4.565-26.122-13.188-35.15-25.017    C188.017,237.885,179.977,247.426,174.514,258.415z"/><path d="M228.117,243.618c0.102,0.05,0.201,0.102,0.304,0.151c0.739,0.355,1.49,0.689,2.245,1.018    c0.348,0.149,0.695,0.298,1.046,0.441c0.656,0.271,1.316,0.535,1.983,0.784c0.515,0.191,1.034,0.369,1.554,0.548    c0.554,0.191,1.104,0.389,1.666,0.565c1.071,0.335,2.152,0.646,3.243,0.924c0.335,0.086,0.677,0.155,1.015,0.235    c0.843,0.201,1.689,0.392,2.543,0.559c0.412,0.081,0.829,0.15,1.245,0.224c0.798,0.14,1.6,0.266,2.405,0.375    c0.422,0.058,0.845,0.113,1.27,0.162c0.848,0.098,1.7,0.174,2.555,0.238c0.374,0.027,0.745,0.063,1.121,0.085    c1.225,0.07,2.453,0.114,3.688,0.114c1.236,0,2.466-0.044,3.69-0.114c0.369-0.021,0.734-0.057,1.103-0.084    c0.865-0.064,1.729-0.142,2.588-0.241c0.409-0.047,0.816-0.102,1.223-0.156c0.833-0.112,1.661-0.243,2.486-0.388    c0.386-0.068,0.773-0.133,1.157-0.207c0.925-0.181,1.843-0.386,2.756-0.606c0.264-0.063,0.531-0.116,0.794-0.183    c1.127-0.288,2.243-0.608,3.35-0.955c0.445-0.141,0.883-0.3,1.324-0.449c0.648-0.22,1.295-0.443,1.936-0.683    c0.574-0.217,1.143-0.443,1.71-0.676c0.467-0.19,0.932-0.388,1.394-0.59c0.651-0.284,1.301-0.573,1.94-0.878    c0.271-0.13,0.54-0.27,0.811-0.403c8.116-4.022,15.268-9.711,20.986-16.63c0.028-0.034,0.056-0.069,0.084-0.104    c6.44-7.825,11.057-17.204,13.201-27.479c0.029-0.143,0.059-0.285,0.087-0.428c0.185-0.914,0.35-1.835,0.495-2.764    c0.011-0.07,0.024-0.142,0.035-0.213c0.149-0.978,0.272-1.963,0.377-2.955c0.021-0.205,0.037-0.411,0.056-0.616    c0.074-0.777,0.134-1.56,0.18-2.345c0.015-0.268,0.031-0.535,0.044-0.804c0.045-0.977,0.074-1.958,0.074-2.945    c0-35.211-28.656-63.856-63.88-63.856c-35.212,0-63.859,28.646-63.859,63.856c0,0.991,0.03,1.976,0.075,2.956    c0.012,0.259,0.027,0.517,0.043,0.774c0.047,0.816,0.107,1.629,0.186,2.436c0.016,0.17,0.028,0.341,0.046,0.51    c0.217,2.076,0.53,4.123,0.941,6.136c0.007,0.032,0.013,0.063,0.02,0.096C197.492,218.688,210.566,235.059,228.117,243.618z"/><path d="M332.225,446.561c-11.182,20.472-24.492,35.832-39.078,45.46c48.44-9.954,90.005-38.974,116.48-78.842h-62.803    C342.699,425.121,337.819,436.316,332.225,446.561z"/><path d="M170.945,405.179h81.056v-89.668h-94.81C157.558,347.548,162.321,378.212,170.945,405.179z"/><path d="M362.805,315.511c-0.356,31.888-4.976,62.506-13.366,89.668h65.215c15.643-26.391,24.892-56.996,25.592-89.668H362.805z"/><path d="M325.203,442.727c4.976-9.109,9.362-19.014,13.14-29.548h-78.342v82.447C284.456,493.791,307.479,475.179,325.203,442.727    z"/><path d="M354.809,315.511h-94.808v89.668h81.054C349.68,378.212,354.443,347.548,354.809,315.511z"/><path d="M90.065,211.566h32.813c1.367,7.191,3.308,14.272,5.791,21.071c0.593,1.623,2.125,2.629,3.758,2.629    c0.455,0,0.919-0.078,1.371-0.243c2.075-0.758,3.144-3.055,2.386-5.13c-2.522-6.905-4.458-14.121-5.753-21.447    c-0.049-0.277-0.126-0.542-0.228-0.793c0.001-0.03,0.009-0.058,0.009-0.087c0-2.209-1.791-4-4-4H94.065v-34.546h32.164    c2.209,0,4-1.791,4-4c0-0.044-0.012-0.085-0.013-0.129c0.093-0.24,0.168-0.489,0.214-0.752c1.296-7.33,3.231-14.546,5.753-21.447    c0.094-0.256,0.158-0.516,0.197-0.774c0.017-0.026,0.036-0.05,0.052-0.077c1.104-1.913,0.449-4.359-1.464-5.464l-27.851-16.08    l17.285-29.926l27.85,16.081c1.912,1.104,4.359,0.448,5.464-1.464c0.023-0.04,0.034-0.084,0.056-0.124    c0.196-0.159,0.386-0.328,0.554-0.529c4.758-5.698,10.044-10.979,15.71-15.696c0.22-0.183,0.412-0.385,0.582-0.6    c0.02-0.012,0.041-0.019,0.061-0.03c1.913-1.104,2.569-3.551,1.465-5.464l-16.065-27.834l29.926-17.3l16.08,27.865    c1.104,1.913,3.55,2.569,5.464,1.465c0.039-0.022,0.069-0.054,0.107-0.077c0.25-0.04,0.499-0.1,0.746-0.189    c6.929-2.531,14.146-4.461,21.452-5.732c0.289-0.051,0.563-0.135,0.824-0.241c0.012,0,0.022,0.003,0.034,0.003    c2.209,0,4-1.791,4-4v-32.13h34.571v32.13c0,2.209,1.791,4,4,4c0.036,0,0.068-0.009,0.104-0.01c0.236,0.091,0.482,0.164,0.74,0.21    c7.406,1.324,14.629,3.266,21.467,5.77c0.249,0.091,0.502,0.15,0.754,0.19c0.038,0.023,0.068,0.055,0.106,0.077    c1.913,1.105,4.36,0.447,5.464-1.466l16.08-27.865l29.939,17.301l-16.08,27.833c-1.105,1.912-0.451,4.359,1.462,5.464    c0.027,0.016,0.055,0.025,0.082,0.04c0.166,0.21,0.355,0.406,0.569,0.585c5.657,4.732,10.941,10.017,15.707,15.707    c0.175,0.208,0.371,0.385,0.574,0.548c0.012,0.021,0.018,0.043,0.029,0.063c1.103,1.914,3.548,2.57,5.463,1.469l27.853-16.052    l17.284,29.929l-27.848,16.08c-1.913,1.104-2.568,3.552-1.463,5.465c0.015,0.025,0.033,0.047,0.049,0.072    c0.039,0.259,0.103,0.518,0.195,0.773c2.53,6.955,4.467,14.174,5.758,21.454c0.046,0.263,0.121,0.512,0.214,0.75    c-0.001,0.044-0.013,0.085-0.013,0.129c0,2.209,1.791,4,4,4h32.161v34.546h-32.161c-2.209,0-4,1.791-4,4s1.791,4,4,4h36.161    c2.209,0,4-1.791,4-4v-42.546c0-2.209-1.791-4-4-4h-32.811c-1.252-6.565-2.996-13.068-5.199-19.385l28.421-16.412    c0.919-0.53,1.589-1.404,1.864-2.429c0.274-1.024,0.13-2.116-0.4-3.035l-21.283-36.853c-1.104-1.912-3.55-2.568-5.461-1.466    l-28.451,16.396c-4.367-5.074-9.119-9.824-14.169-14.167l16.42-28.421c1.104-1.913,0.45-4.359-1.462-5.465l-36.868-21.304    c-0.919-0.531-2.011-0.676-3.036-0.4c-1.025,0.274-1.899,0.945-2.43,1.864l-16.401,28.424c-6.229-2.185-12.731-3.932-19.385-5.208    V20.374c0-2.209-1.791-4-4-4h-42.571c-2.209,0-4,1.791-4,4v32.814c-6.582,1.238-13.083,2.977-19.377,5.181l-16.403-28.424    c-0.53-0.919-1.404-1.59-2.43-1.864c-1.024-0.275-2.117-0.131-3.036,0.4l-36.852,21.305c-1.912,1.104-2.566,3.55-1.463,5.462    l16.407,28.428c-5.064,4.338-9.824,9.093-14.192,14.182L124.94,81.443c-1.913-1.104-4.359-0.45-5.464,1.464L98.189,119.76    c-0.53,0.918-0.675,2.01-0.4,3.035c0.274,1.024,0.945,1.898,1.864,2.429l28.421,16.41c-2.197,6.278-3.941,12.783-5.196,19.387    H90.065c-2.209,0-4,1.791-4,4v42.546C86.065,209.775,87.856,211.566,90.065,211.566z"/></g></g><g id="Layer_1"/></svg>