<svg width="150" height="150" xmlns="http://www.w3.org/2000/svg">
 <defs>
  <clipPath id="clip-path">
   <circle fill="#13818d" id="svg_1" r="65" cy="75" cx="75" class="cls-1"/>
  </clipPath>
 </defs>
 <title/>
 <g>
  <title>background</title>
  <rect fill="none" id="canvas_background" height="256" width="256" y="-1" x="-1"/>
 </g>
 <g>
  <title>Layer 1</title>
  <polygon fill="#ffffff" clip-path="url(#clip-path)" id="svg_4" points="77.44 94.43 75.35 94.43 75.16 104.51 77.65 104.51 77.44 94.43" class="cls-3"/>
  <polygon fill="#ffffff" clip-path="url(#clip-path)" id="svg_5" points="77.86 114.58 74.98 114.58 74.8 124.66 78.08 124.66 77.86 114.58" class="cls-3"/>
  <polygon fill="#ffffff" clip-path="url(#clip-path)" id="svg_6" points="74.61 134.73 74.51 140.15 78.41 140.15 78.29 134.73 74.61 134.73" class="cls-3"/>
  <path fill="#ffffff" clip-path="url(#clip-path)" id="svg_7" d="m110.32,90.11a9.09,9.09 0 0 0 3.44,-7.11l0,-6.27a9.14,9.14 0 0 0 -9.14,-9.14l-0.62,0l0.47,-1.25a2.15,2.15 0 0 0 0.61,0.1l4.47,0a2.17,2.17 0 0 0 2.17,-2.17l0,-0.14a2.17,2.17 0 0 0 -2.18,-2.13l-4.47,0a2.17,2.17 0 0 0 -2.17,2.17l0,0.13s0,0 0,0l-0.28,0.74l-2.85,-13.75c-0.33,-1.71 -1.34,-3 -3,-3l-39.3,0c-1.65,0 -2.46,1 -3,3l-3.97,13.71l-0.4,-1.07a2.16,2.16 0 0 0 -2.1,-1.93l-4.51,0a2.17,2.17 0 0 0 -2.17,2.17l0,0.13a2.17,2.17 0 0 0 2.17,2.17l4.51,0a2.14,2.14 0 0 0 0.71,-0.13l0.48,1.28l-0.78,0a9.14,9.14 0 0 0 -9.14,9.14l0,6.24a9.08,9.08 0 0 0 3.45,7.12l-15.67,34.88l0.64,0.38c1.44,0.86 35.49,21.08 48.88,21.08l0.13,0c13.43,-0.13 47.58,-21.3 49,-22.21l0.63,-0.39l-16.01,-33.75zm-33.63,54.68l-0.11,0.83l0,-0.83c-12,0 -42.57,-17.65 -47.39,-20.47l14.94,-33.27l0.2,0.12l0,6.14a2.17,2.17 0 0 0 2.17,2.16l4.33,0a2.17,2.17 0 0 0 2.17,-2.16l0,-5.17l47,0l0,5.17a2.17,2.17 0 0 0 2.17,2.16l4.33,0a2.17,2.17 0 0 0 2.17,-2.16l0,-6.14l0.22,-0.13l15.3,32.18c-4.78,2.94 -35.51,21.45 -47.5,21.57z" class="cls-3"/>
  <path fill="#eeeeee" id="svg_8" d="m99.7,65.43a2.63,2.63 0 0 1 -2.63,2.63l-41.12,0a2.63,2.63 0 0 1 -2.63,-2.62l3.25,-12.44c0.46,-1.71 1.18,-2.63 2.63,-2.63l35.71,0c1.45,0 2.33,1.12 2.63,2.63l2.16,12.43z" class="cls-1"/>
  <circle fill="#eeeeee" id="svg_9" r="5.26" cy="81.31" cx="49.65" class="cls-4"/>
  <circle fill="#eeeeee" id="svg_10" r="5.26" cy="81.31" cx="103.38" class="cls-4"/>
  <path fill="#ffffff" id="svg_11" d="m68.77,69.23l-0.13,0l-12.83,-4.56a0.38,0.38 0 1 1 0.25,-0.67l12.84,4.5a0.38,0.38 0 0 1 -0.13,0.73z" class="cls-3"/>
  <path fill="#ffffff" id="svg_12" d="m95.83,69.23l-0.13,0l-12.83,-4.56a0.38,0.38 0 0 1 0.25,-0.67l12.88,4.5a0.38,0.38 0 0 1 -0.17,0.73z" class="cls-3"/>
 </g>
</svg>