<svg xmlns="http://www.w3.org/2000/svg" xmlns:xlink="http://www.w3.org/1999/xlink" width="189.277" height="161.213" viewBox="0 0 189.277 161.213">
  <defs>
    <linearGradient id="linear-gradient" x1="0.5" x2="0.5" y2="1" gradientUnits="objectBoundingBox">
      <stop offset="0" stop-color="#1a1e22"/>
      <stop offset="1" stop-color="#112536"/>
    </linearGradient>
    <filter id="Trazado_188" x="0" y="0" width="189.277" height="161.213" filterUnits="userSpaceOnUse">
      <feOffset dy="2" input="SourceAlpha"/>
      <feGaussianBlur stdDeviation="10" result="blur"/>
      <feFlood flood-color="#5bcef8"/>
      <feComposite operator="in" in2="blur"/>
      <feComposite in="SourceGraphic"/>
    </filter>
    <filter id="Trazado_189" x="36.717" y="13.036" width="115.671" height="115.786" filterUnits="userSpaceOnUse">
      <feOffset dy="3" input="SourceAlpha"/>
      <feGaussianBlur stdDeviation="10" result="blur-2"/>
      <feFlood flood-color="#5bcef8"/>
      <feComposite operator="in" in2="blur-2"/>
      <feComposite in="SourceGraphic"/>
    </filter>
  </defs>
  <g id="logo" transform="translate(30 28)">
    <g transform="matrix(1, 0, 0, 1, -30, -28)" filter="url(#Trazado_188)">
      <path id="Trazado_188-2" data-name="Trazado 188" d="M18.723-217.335C11.228-205.681,8-194.9,8-181.554a67.959,67.959,0,0,0,10.668,37.2c3.447,5.307,12.036,13.787,17.781,17.562,5.526,3.556,12.583,7,14.443,7,1.094,0,3.392-2.3,11.051-11,9.3-10.45,9.793-10.887,10.559-9.9,2.626,3.283,16.085,18.218,17.562,19.477,2.517,2.079,5.143,1.915,10.5-.766a66.826,66.826,0,0,0,30.145-29.817c7.5-15.1,8.644-33.975,3.064-50.716-1.477-4.322-5.362-12.8-6.675-14.5-.492-.711-3.447.985-6.4,3.775-.766.711-4.541,3.939-8.371,7.222-6.948,5.854-7.058,5.963-6.784,7.933a36.547,36.547,0,0,0,1.751,5.8c1.915,5.033,2.407,12.857,1.149,18.875a39.2,39.2,0,0,1-20.024,25.768c-10.176,5.033-21.337,4.924-32.169-.383-5.854-2.9-13.185-10.231-16.085-16.085-5.088-10.231-5.471-20.133-1.258-30.911,1.313-3.337,1.532-4.267,1.422-5.8,0-.492-3.064-4.213-6.729-8.206C23.538-220.125,22.662-221,21.842-221,21.459-221,20.036-219.359,18.723-217.335Z" transform="translate(22 249)" fill="url(#linear-gradient)"/>
    </g>
    <g transform="matrix(1, 0, 0, 1, -30, -28)" filter="url(#Trazado_189)">
      <path id="Trazado_189-2" data-name="Trazado 189" d="M94.747-197.742a26.769,26.769,0,0,0-11.653,7.331,27,27,0,0,0-7.167,25.823A28,28,0,0,0,94.418-144.4c3.447,1.2,4.541,1.313,9.9,1.094,5.745-.219,6.292-.328,10.668-2.462,9.41-4.6,14.772-12.583,15.7-23.416A27.607,27.607,0,0,0,103.008-199,23.638,23.638,0,0,0,94.747-197.742Zm13.295,14.061a15.277,15.277,0,0,1,7.276,7.331c2.954,6.346.438,13.623-6.018,17.343-6.51,3.72-14.772.985-18.437-6.182-1.422-2.736-1.422-8.644,0-11.653C93.871-183.3,101.968-186.526,108.041-183.682Z" transform="translate(-8.4 239.04)" fill="url(#linear-gradient)"/>
    </g>
  </g>
</svg>
